<?xml version="1.0" encoding="utf-8"?>
<!-- Generator: Adobe Illustrator 19.0.0, SVG Export Plug-In . SVG Version: 6.00 Build 0)  -->
<svg version="1.1" id="layer" xmlns="http://www.w3.org/2000/svg" xmlns:xlink="http://www.w3.org/1999/xlink" x="0px" y="0px"
	 viewBox="-153 -46 652 652" style="enable-background:new -153 -46 652 652;" xml:space="preserve">
<style type="text/css">
	.st0{fill:#13100C;}
	.st1{fill:#E20043;}
</style>
<path class="st0" d="M-32.8,247.5h-30.4V340h-32.5v-92.5h-30.7v-26.9h93.7V247.5z M69,319.4H24.8L18.3,340h-34.9l47.1-119.3h33.4
	L111,340H75.8L69,319.4z M61.2,295.5l-14.3-43l-14.3,43H61.2z M136.7,325l18.8-21.2c7.5,8.4,17.9,13.1,29.2,13.1
	c9.2,0,16.1-3.6,16.1-11c0-8.4-9-11.6-20.3-14.6c-26-6.3-35.8-18.2-35.8-36.4c0-23,23-37.6,45.6-37.6c15.8,0,31,5.1,43.6,14.6
	l-17.9,21.2c-6.3-6-14.6-9.2-23.6-9.5c-7.8,0-14.3,3.9-14.3,10.1c0,6.3,4.8,9.5,20.6,14c20.9,6,36.4,17,36.4,37.9
	c0,25.1-24.5,37-47.1,37C169.2,342.9,151.6,338.5,136.7,325z M352.1,340l-39.4-51v51h-32.5V220.6h32.5v44.5l34.6-44.5h42.4
	L339.3,277l54.9,63H352.1z"/>
<circle class="st1" cx="447.6" cy="314" r="26"/>
</svg>
